<svg xmlns="http://www.w3.org/2000/svg" width="438" height="81" viewBox="0 0 438 81">
  <g id="Group_17" data-name="Group 17" transform="translate(-773 -12)">
    <text id="Tutorialtube" transform="translate(773 74)" fill="#707070" font-size="57" font-family="SegoeUI, Segoe UI" letter-spacing="0.109em"><tspan x="0" y="0">Tutorialtube</tspan></text>
    <g id="Polygon_3" data-name="Polygon 3" transform="translate(1211 24) rotate(90)" fill="#707070">
      <path d="M 53.44326019287109 59.5 L 15.55673980712891 59.5 C 12.48696994781494 59.5 9.736519813537598 57.91363906860352 8.19929027557373 55.25650024414062 C 6.662049770355225 52.59934997558594 6.657849788665771 49.42420959472656 8.188039779663086 46.76300048828125 L 27.13129043579102 13.81821060180664 C 28.66617012023926 11.148850440979 31.42082977294922 9.555210113525391 34.5 9.555210113525391 C 37.57915878295898 9.555210113525391 40.33382034301758 11.148850440979 41.86869812011719 13.81821060180664 L 60.81195831298828 46.76300048828125 C 62.34215927124023 49.42420959472656 62.33795928955078 52.59934234619141 60.80072021484375 55.25648880004883 C 59.26348876953125 57.91363906860352 56.51303863525391 59.5 53.44326019287109 59.5 Z" stroke="none"/>
      <path d="M 34.4999885559082 10.05521011352539 C 31.6019401550293 10.05521011352539 29.00933074951172 11.55511093139648 27.56475067138672 14.06744003295898 L 8.621490478515625 47.01222991943359 C 7.181301116943359 49.51689910888672 7.185260772705078 52.5052604675293 8.632068634033203 55.00611114501953 C 10.07888031005859 57.50696182250977 12.66754150390625 59 15.55673980712891 59 L 53.44326019287109 59 C 56.33245849609375 59 58.92111968994141 57.50696182250977 60.367919921875 55.00611877441406 C 61.81473159790039 52.50527191162109 61.81869125366211 49.51689910888672 60.37850189208984 47.01222991943359 L 41.43524169921875 14.06744003295898 C 39.99065017700195 11.55511093139648 37.39802932739258 10.05521011352539 34.4999885559082 10.05521011352539 M 34.49999618530273 9.055206298828125 C 37.53593444824219 9.055206298828125 40.57187652587891 10.55979537963867 42.30215072631836 13.5689697265625 L 61.24541091918945 46.51375961303711 C 64.69540405273438 52.51374816894531 60.36441040039062 60 53.44326019287109 60 L 15.55673980712891 60 C 8.635601043701172 60 4.304588317871094 52.51374816894531 7.754581451416016 46.51375961303711 L 26.69784164428711 13.5689697265625 C 28.42811584472656 10.55979537963867 31.46405410766602 9.055206298828125 34.49999618530273 9.055206298828125 Z" stroke="none" fill="#707070"/>
    </g>
  </g>
</svg>
