<?xml version="1.0" standalone="no"?>
<!DOCTYPE svg PUBLIC "-//W3C//DTD SVG 20010904//EN"
 "http://www.w3.org/TR/2001/REC-SVG-20010904/DTD/svg10.dtd">
<svg version="1.0" xmlns="http://www.w3.org/2000/svg"
 width="800.000000pt" height="310.000000pt" viewBox="0 0 800.000000 310.000000"
 preserveAspectRatio="xMidYMid meet">

<g transform="translate(0.000000,310.000000) scale(0.100000,-0.100000)"
fill="#000000" stroke="none">
<path d="M4450 2540 l-216 -108 -137 -424 c-75 -232 -177 -560 -227 -728 -50
-168 -127 -423 -170 -568 -44 -144 -80 -264 -80 -267 0 -2 260 -5 578 -5 l579
0 179 136 c98 75 186 143 194 150 13 13 -55 14 -517 8 -455 -6 -533 -5 -533 7
0 8 124 419 275 914 333 1089 305 995 297 994 -4 0 -104 -49 -222 -109z"/>
<path d="M4998 2540 l-217 -110 -16 -52 c-8 -29 -111 -370 -229 -758 l-213
-705 884 -3 885 -2 173 142 174 143 -825 3 c-453 1 -824 5 -824 8 0 5 428
1406 437 1432 3 6 1 12 -3 11 -5 0 -107 -49 -226 -109z"/>
<path d="M557 1974 l-199 -196 83 -184 82 -184 362 0 361 0 26 -54 27 -55 -58
-50 -59 -51 -363 0 -364 0 -160 -126 c-88 -69 -169 -135 -180 -146 l-20 -20
34 6 c18 3 295 6 615 6 l581 0 197 193 197 192 -78 180 -78 180 -366 3 -367 2
-26 52 -27 52 57 53 57 53 397 0 c218 0 461 3 540 7 123 5 142 4 142 -9 0 -8
-80 -277 -178 -597 -99 -319 -176 -581 -172 -581 4 0 105 49 225 108 l217 108
189 613 c104 337 189 620 189 627 0 12 -134 14 -842 14 l-843 -1 -198 -195z"/>
<path d="M2745 1919 c-187 -138 -345 -256 -352 -262 -12 -12 -144 -437 -136
-437 2 0 86 61 187 135 101 74 187 135 190 135 3 0 47 -61 97 -137 l92 -136
-42 -136 c-23 -75 -45 -144 -47 -153 -5 -17 8 -18 185 -18 171 0 191 2 199 18
5 9 30 90 57 180 l48 162 -148 220 c-91 134 -145 223 -140 229 6 4 141 104
300 221 160 116 294 216 299 221 6 5 -84 9 -220 9 l-230 0 -339 -251z"/>
<path d="M3630 2165 c0 -3 -77 -251 -171 -552 -149 -479 -259 -854 -259 -882
0 -5 101 38 225 96 l225 106 25 81 c13 45 92 311 175 591 83 281 155 522 160
538 l9 27 -195 0 c-106 0 -194 -2 -194 -5z"/>
<path d="M5286 2153 c-28 -93 -240 -788 -251 -821 l-14 -42 197 2 196 3 15 58
15 57 403 0 404 0 164 128 164 127 -524 3 c-289 1 -525 4 -525 6 0 1 4 16 9
32 6 16 19 62 31 102 l21 72 595 0 c473 0 595 -3 591 -12 -9 -26 -297 -975
-297 -981 0 -14 441 214 448 231 3 9 59 184 122 387 l115 370 184 3 183 2 176
137 c98 75 181 140 186 144 6 5 -577 9 -1296 9 -1236 0 -1307 -1 -1312 -17z"/>
</g>
</svg>
